<mxfile host="Electron" modified="2024-01-17T13:03:39.722Z" agent="Mozilla/5.0 (Windows NT 10.0; Win64; x64) AppleWebKit/537.36 (KHTML, like Gecko) draw.io/22.1.18 Chrome/120.0.6099.199 Electron/28.1.2 Safari/537.36" etag="Mr8r-Oxt5Ocp7mfLeBtc" version="22.1.18" type="device">
  <diagram name="ページ1" id="LE8fIzdrHe0wcv1LTvfw">
    <mxGraphModel dx="845" dy="502" grid="1" gridSize="10" guides="1" tooltips="1" connect="1" arrows="1" fold="1" page="1" pageScale="1" pageWidth="1600" pageHeight="1200" math="0" shadow="0">
      <root>
        <mxCell id="0" />
        <mxCell id="cFaB45KztUIKXS-_cTrr-4" value="背景" style="locked=1;" parent="0" visible="0" />
        <mxCell id="cFaB45KztUIKXS-_cTrr-5" value="" style="rounded=0;whiteSpace=wrap;html=1;strokeWidth=3;" parent="cFaB45KztUIKXS-_cTrr-4" vertex="1">
          <mxGeometry x="1" y="1" width="1595" height="1180" as="geometry" />
        </mxCell>
        <mxCell id="cFaB45KztUIKXS-_cTrr-6" value="" style="rounded=0;whiteSpace=wrap;html=1;fillColor=#B3B3B3;fontColor=#333333;strokeColor=#666666;" parent="cFaB45KztUIKXS-_cTrr-4" vertex="1">
          <mxGeometry width="1595" height="60" as="geometry" />
        </mxCell>
        <mxCell id="cFaB45KztUIKXS-_cTrr-7" value="&lt;font style=&quot;font-size: 48px;&quot;&gt;×&lt;/font&gt;" style="rounded=0;whiteSpace=wrap;html=1;" parent="cFaB45KztUIKXS-_cTrr-4" vertex="1">
          <mxGeometry x="1550" y="10" width="40" height="40" as="geometry" />
        </mxCell>
        <mxCell id="cFaB45KztUIKXS-_cTrr-8" value="" style="rounded=0;whiteSpace=wrap;html=1;" parent="cFaB45KztUIKXS-_cTrr-4" vertex="1">
          <mxGeometry x="830" y="670" width="120" height="60" as="geometry" />
        </mxCell>
        <mxCell id="cFaB45KztUIKXS-_cTrr-9" value="ウインドウ" style="locked=1;" parent="0" />
        <mxCell id="cFaB45KztUIKXS-_cTrr-10" value="" style="rounded=0;whiteSpace=wrap;html=1;strokeWidth=3;" parent="cFaB45KztUIKXS-_cTrr-9" vertex="1">
          <mxGeometry x="1" y="1" width="1595" height="1169" as="geometry" />
        </mxCell>
        <mxCell id="cFaB45KztUIKXS-_cTrr-11" value="" style="rounded=0;whiteSpace=wrap;html=1;fillColor=#B3B3B3;fontColor=#333333;strokeColor=#666666;" parent="cFaB45KztUIKXS-_cTrr-9" vertex="1">
          <mxGeometry width="1595" height="60" as="geometry" />
        </mxCell>
        <mxCell id="cFaB45KztUIKXS-_cTrr-12" value="&lt;font style=&quot;font-size: 48px;&quot;&gt;×&lt;/font&gt;" style="rounded=0;whiteSpace=wrap;html=1;" parent="cFaB45KztUIKXS-_cTrr-9" vertex="1">
          <mxGeometry x="1550" y="10" width="40" height="40" as="geometry" />
        </mxCell>
        <mxCell id="cFaB45KztUIKXS-_cTrr-14" value="名称未設定レイヤ" style="" parent="0" />
        <mxCell id="-aRjbIlAvJyihVMSlcDC-31" style="edgeStyle=orthogonalEdgeStyle;rounded=0;orthogonalLoop=1;jettySize=auto;html=1;exitX=0.5;exitY=0;exitDx=0;exitDy=0;entryX=0.5;entryY=1;entryDx=0;entryDy=0;" parent="cFaB45KztUIKXS-_cTrr-14" target="lHecheWsHZr5f5_axR1w-35" edge="1">
          <mxGeometry relative="1" as="geometry">
            <mxPoint x="801" y="153" as="sourcePoint" />
          </mxGeometry>
        </mxCell>
        <mxCell id="lHecheWsHZr5f5_axR1w-30" value="" style="childLayout=tableLayout;recursiveResize=0;shadow=0;fillColor=none;" parent="cFaB45KztUIKXS-_cTrr-14" vertex="1">
          <mxGeometry x="22" y="93" width="1558" height="60" as="geometry" />
        </mxCell>
        <mxCell id="lHecheWsHZr5f5_axR1w-35" style="shape=tableRow;horizontal=0;startSize=0;swimlaneHead=0;swimlaneBody=0;top=0;left=0;bottom=0;right=0;dropTarget=0;collapsible=0;recursiveResize=0;expand=0;fontStyle=0;fillColor=none;strokeColor=inherit;" parent="lHecheWsHZr5f5_axR1w-30" vertex="1">
          <mxGeometry width="1558" height="60" as="geometry" />
        </mxCell>
        <mxCell id="lHecheWsHZr5f5_axR1w-36" value="" style="connectable=0;recursiveResize=0;strokeColor=inherit;fillColor=none;align=center;whiteSpace=wrap;html=1;" parent="lHecheWsHZr5f5_axR1w-35" vertex="1">
          <mxGeometry width="130" height="60" as="geometry">
            <mxRectangle width="130" height="60" as="alternateBounds" />
          </mxGeometry>
        </mxCell>
        <mxCell id="lHecheWsHZr5f5_axR1w-37" value="" style="connectable=0;recursiveResize=0;strokeColor=inherit;fillColor=none;align=center;whiteSpace=wrap;html=1;" parent="lHecheWsHZr5f5_axR1w-35" vertex="1">
          <mxGeometry x="130" width="130" height="60" as="geometry">
            <mxRectangle width="130" height="60" as="alternateBounds" />
          </mxGeometry>
        </mxCell>
        <mxCell id="lHecheWsHZr5f5_axR1w-38" value="" style="connectable=0;recursiveResize=0;strokeColor=inherit;fillColor=none;align=left;whiteSpace=wrap;html=1;" parent="lHecheWsHZr5f5_axR1w-35" vertex="1">
          <mxGeometry x="260" width="288" height="60" as="geometry">
            <mxRectangle width="288" height="60" as="alternateBounds" />
          </mxGeometry>
        </mxCell>
        <mxCell id="-aRjbIlAvJyihVMSlcDC-13" style="connectable=0;recursiveResize=0;strokeColor=inherit;fillColor=none;align=left;whiteSpace=wrap;html=1;" parent="lHecheWsHZr5f5_axR1w-35" vertex="1">
          <mxGeometry x="548" width="350" height="60" as="geometry">
            <mxRectangle width="350" height="60" as="alternateBounds" />
          </mxGeometry>
        </mxCell>
        <mxCell id="-aRjbIlAvJyihVMSlcDC-25" style="connectable=0;recursiveResize=0;strokeColor=inherit;fillColor=none;align=left;whiteSpace=wrap;html=1;" parent="lHecheWsHZr5f5_axR1w-35" vertex="1">
          <mxGeometry x="898" width="352" height="60" as="geometry">
            <mxRectangle width="352" height="60" as="alternateBounds" />
          </mxGeometry>
        </mxCell>
        <mxCell id="-aRjbIlAvJyihVMSlcDC-44" style="connectable=0;recursiveResize=0;strokeColor=inherit;fillColor=none;align=left;whiteSpace=wrap;html=1;" parent="lHecheWsHZr5f5_axR1w-35" vertex="1">
          <mxGeometry x="1250" width="168" height="60" as="geometry">
            <mxRectangle width="168" height="60" as="alternateBounds" />
          </mxGeometry>
        </mxCell>
        <mxCell id="fEjhOvrRUlLvb5Ld7npS-3" style="connectable=0;recursiveResize=0;strokeColor=inherit;fillColor=none;align=left;whiteSpace=wrap;html=1;" parent="lHecheWsHZr5f5_axR1w-35" vertex="1">
          <mxGeometry x="1418" width="140" height="60" as="geometry">
            <mxRectangle width="140" height="60" as="alternateBounds" />
          </mxGeometry>
        </mxCell>
        <mxCell id="-aRjbIlAvJyihVMSlcDC-38" value="&lt;span style=&quot;font-size: 30px;&quot;&gt;▼弁当代-1,000×120&lt;/span&gt;" style="rounded=0;whiteSpace=wrap;html=1;align=left;fillColor=#FFFFFF;" parent="cFaB45KztUIKXS-_cTrr-14" vertex="1">
          <mxGeometry x="573" y="100" width="333" height="48" as="geometry" />
        </mxCell>
        <mxCell id="-aRjbIlAvJyihVMSlcDC-39" value="&lt;span style=&quot;font-size: 30px;&quot;&gt;▼参加費 10,000×100&lt;/span&gt;" style="rounded=0;whiteSpace=wrap;html=1;align=left;fillColor=#FFFFFF;" parent="cFaB45KztUIKXS-_cTrr-14" vertex="1">
          <mxGeometry x="925" y="100" width="331" height="48" as="geometry" />
        </mxCell>
        <mxCell id="-aRjbIlAvJyihVMSlcDC-110" style="connectable=0;recursiveResize=0;strokeColor=inherit;fillColor=none;align=left;whiteSpace=wrap;html=1;" parent="cFaB45KztUIKXS-_cTrr-14" vertex="1">
          <mxGeometry x="1269" y="93" width="170" height="60" as="geometry">
            <mxRectangle width="170" height="60" as="alternateBounds" />
          </mxGeometry>
        </mxCell>
        <mxCell id="-aRjbIlAvJyihVMSlcDC-111" value="&lt;font style=&quot;font-size: 30px;&quot;&gt;&lt;b&gt;↑&lt;/b&gt;&lt;/font&gt;" style="rounded=1;whiteSpace=wrap;html=1;strokeWidth=4;" parent="cFaB45KztUIKXS-_cTrr-14" vertex="1">
          <mxGeometry x="1295" y="99" width="50" height="50" as="geometry" />
        </mxCell>
        <mxCell id="-aRjbIlAvJyihVMSlcDC-112" value="&lt;span style=&quot;font-size: 30px;&quot;&gt;&lt;b&gt;↓&lt;/b&gt;&lt;/span&gt;" style="rounded=1;whiteSpace=wrap;html=1;strokeWidth=4;" parent="cFaB45KztUIKXS-_cTrr-14" vertex="1">
          <mxGeometry x="1365" y="99" width="50" height="50" as="geometry" />
        </mxCell>
        <mxCell id="fEjhOvrRUlLvb5Ld7npS-13" value="&lt;span style=&quot;font-size: 30px;&quot;&gt;&lt;b&gt;削除&lt;/b&gt;&lt;/span&gt;" style="rounded=1;whiteSpace=wrap;html=1;strokeWidth=4;" parent="cFaB45KztUIKXS-_cTrr-14" vertex="1">
          <mxGeometry x="1456" y="99" width="104" height="50" as="geometry" />
        </mxCell>
        <mxCell id="rPyV_1n_66OARqOfIAE4-0" value="&lt;font style=&quot;font-size: 30px;&quot;&gt;xx市場視察(1)&lt;/font&gt;" style="rounded=0;whiteSpace=wrap;html=1;align=left;fillColor=#FFFFFF;" vertex="1" parent="cFaB45KztUIKXS-_cTrr-14">
          <mxGeometry x="289" y="99" width="271" height="48" as="geometry" />
        </mxCell>
        <mxCell id="rPyV_1n_66OARqOfIAE4-1" value="&lt;font style=&quot;font-size: 30px;&quot;&gt;10:15&lt;/font&gt;" style="rounded=0;whiteSpace=wrap;html=1;align=right;fillColor=#FFFFFF;" vertex="1" parent="cFaB45KztUIKXS-_cTrr-14">
          <mxGeometry x="33" y="99" width="111" height="48" as="geometry" />
        </mxCell>
        <mxCell id="rPyV_1n_66OARqOfIAE4-2" value="&lt;font style=&quot;font-size: 30px;&quot;&gt;12:45&lt;/font&gt;" style="rounded=0;whiteSpace=wrap;html=1;align=right;fillColor=#FFFFFF;" vertex="1" parent="cFaB45KztUIKXS-_cTrr-14">
          <mxGeometry x="165" y="99" width="111" height="48" as="geometry" />
        </mxCell>
      </root>
    </mxGraphModel>
  </diagram>
</mxfile>
